HIERARCHY
ROOT Hips
{
  OFFSET 57.8838 95.319 338.509
  CHANNELS 6 Xposition Yposition Zposition Zrotation Xrotation Yrotation
  JOINT LeftUpLeg
  {
    OFFSET 8.64259 1.95398 -2.38835
    CHANNELS 3 Zrotation Xrotation Yrotation
    JOINT LeftLeg
    {
      OFFSET 43.7702 0 0
      CHANNELS 3 Zrotation Xrotation Yrotation
      JOINT LeftFoot
      {
        OFFSET 40.6238 0 0
        CHANNELS 3 Zrotation Xrotation Yrotation
        JOINT LeftToeBase
        {
          OFFSET 12.7242 0 0
          CHANNELS 3 Zrotation Xrotation Yrotation
          End Site
          {
            OFFSET 0 0 0
          }
        }
      }
    }
  }
  JOINT RightUpLeg
  {
    OFFSET -8.2249 1.95398 -2.59336
    CHANNELS 3 Zrotation Xrotation Yrotation
    JOINT RightLeg
    {
      OFFSET 43.5653 0 0
      CHANNELS 3 Zrotation Xrotation Yrotation
      JOINT RightFoot
      {
        OFFSET 40.6238 0 0
        CHANNELS 3 Zrotation Xrotation Yrotation
        JOINT RightToeBase
        {
          OFFSET 12.7242 0 0
          CHANNELS 3 Zrotation Xrotation Yrotation
          End Site
          {
            OFFSET 0 0 0
          }
        }
      }
    }
  }
  JOINT Spine
  {
    OFFSET 0.165834 0.87714 6.61349
    CHANNELS 3 Zrotation Xrotation Yrotation
    JOINT Spine1
    {
      OFFSET 7.38963 1.71661e-005 0
      CHANNELS 3 Zrotation Xrotation Yrotation
      JOINT Spine2
      {
        OFFSET 11.9445 1.14441e-005 0
        CHANNELS 3 Zrotation Xrotation Yrotation
        JOINT Spine3
        {
          OFFSET 14.7254 4.19617e-005 0
          CHANNELS 3 Zrotation Xrotation Yrotation
          JOINT Spine4
          {
            OFFSET 10.9679 0 0
            CHANNELS 3 Zrotation Xrotation Yrotation
            JOINT RightShoulder
            {
              OFFSET 2.46616 -1.6653 3.69651
              CHANNELS 3 Zrotation Xrotation Yrotation
              JOINT RightArm
              {
                OFFSET 13.0012 0 0
                CHANNELS 3 Zrotation Xrotation Yrotation
                JOINT RightForeArm
                {
                  OFFSET 28.7848 1.62311e-005 0
                  CHANNELS 3 Zrotation Xrotation Yrotation
                  JOINT RightHand
                  {
                    OFFSET 26.5688 1.62095e-005 0
                    CHANNELS 3 Zrotation Xrotation Yrotation
                    End Site
                    {
                      OFFSET 0 0 0
                    }
                  }
                }
              }
            }
            JOINT LeftShoulder
            {
              OFFSET 2.38034 -1.29275 -3.7523
              CHANNELS 3 Zrotation Xrotation Yrotation
              JOINT LeftArm
              {
                OFFSET 16.3182 6.07031e-005 0
                CHANNELS 3 Zrotation Xrotation Yrotation
                JOINT LeftForeArm
                {
                  OFFSET 27.0901 0 0
                  CHANNELS 3 Zrotation Xrotation Yrotation
                  JOINT LeftHand
                  {
                    OFFSET 24.5451 1.51738e-005 0
                    CHANNELS 3 Zrotation Xrotation Yrotation
                    End Site
                    {
                      OFFSET 0 0 0
                    }
                  }
                }
              }
            }
            JOINT Neck
            {
              OFFSET 5.0226 -0.0266342 0
              CHANNELS 3 Zrotation Xrotation Yrotation
              JOINT Head
              {
                OFFSET 6.69364 2.86102e-005 0
                CHANNELS 3 Zrotation Xrotation Yrotation
                End Site
                {
                  OFFSET 0 0 0
                }
              }
            }
          }
        }
      }
    }
  }
}
MOTION
Frames:	12
Frame Time:	0.0416667
-179.522 83.1377 165.984 101.707 56.3211 87.1251 -174.839 14.6813 85.1709 -99.1433 1.97166 6.11972 58.6061 2.94597 6.03846 49.9887 10.7306 13.1608 170.124 28.9414 101.818 -56.9126 -16.4224 4.13535 68.4399 -14.3302 -6.45689 34.9785 -7.64965 5.42445 0.0945087 8.78762 -91.9235 9.26801 -0.674167 -3.76212 -2.40815 -0.838974 -3.72888 -24.8999 0.486778 -3.79089 -4.88725 0.48677 -3.7909 95.1708 -43.2508 -93.8469 23.8298 -26.156 -7.16449 -15.3118 4.21145 -58.6257 -3.65918 -0.0171897 -5.60804 -82.2475 -50.9879 90.4801 -23.2782 24.0418 0.625317 13.2081 -0.557548 -83.2726 -8.22488 0.657935 -18.9117 36.4893 0.661823 5.91182 -19.3338 -2.7347 3.89144 
-167.471 89.5812 153.838 101.14 59.4959 80.2861 -168.459 40.6757 70.1775 -109.306 1.03228 5.83032 59.0165 2.99329 5.88529 52.525 12.012 12.584 171.655 13.0898 94.8058 -46.9418 -14.2645 2.00987 71.6467 -10.614 0.815715 35.5927 -8.89438 1.209 0.492585 8.52321 -91.105 9.85585 0.480127 -2.2158 -1.81672 0.38214 -2.23478 -24.3423 1.12393 -1.9692 -4.32964 1.12392 -1.9692 95.6694 -42.0462 -93.1951 24.3291 -38.5735 -9.96705 -19.2264 13.955 -72.3599 0.57424 -0.0497258 -6.05953 -81.8228 -50.7461 91.1002 -18.1743 13.1675 5.38959 14.5059 -1.22412 -84.9451 -4.19944 0.131728 -17.369 31.4514 -3.12871 8.54952 -18.1837 -6.82173 1.62313 
-155.927 99.7104 141.445 104.432 56.1643 73.8909 -162.822 49.1806 60.8444 -105.857 -0.524029 5.4272 60.0604 1.07243 1.27757 51.8771 11.583 12.1824 173.636 3.24812 90.4272 -41.0602 -15.359 -0.538443 54.9286 14.7175 11.7537 15.7191 18.8322 -4.05507 0.927989 8.69761 -90.5326 9.48264 1.61062 -1.1783 -2.18793 1.5572 -1.24806 -24.7291 1.89022 -0.639687 -4.71649 1.89024 -0.639683 96.2884 -42.4625 -92.0762 27.7966 -51.4334 -6.27579 -22.9543 22.4488 -78.1102 7.04043 -0.0205346 -5.26375 -80.5953 -47.8971 92.7891 -16.6791 4.29201 13.8427 18.7515 -1.0269 -85.7602 -1.15671 -0.222065 -16.4914 24.9212 -4.93199 10.4536 -16.2615 -8.16635 -2.70635 
-144.451 105.507 129.114 106.994 53.4936 71.9155 -169.365 44.6722 64.6465 -98.5812 -3.78147 5.21094 61.471 2.92406 1.15258 50.5769 10.8956 12.2588 173.965 4.0691 90.6539 -38.0661 -13.6353 -0.647533 57.6948 11.845 10.9597 15.0979 20.4434 -5.62579 0.996368 8.93229 -90.5748 9.01798 1.73091 -1.25834 -2.6525 1.67387 -1.33329 -25.1951 2.02903 -0.679821 -5.18244 2.02903 -0.679822 96.0952 -42.5705 -92.3902 32.1405 -61.1315 -0.690039 -21.2038 29.1611 -83.7182 8.72507 -0.123622 -6.26552 -79.9299 -43.9827 93.6457 -15.259 -2.3288 21.9881 18.669 -0.714498 -86.0636 0.0615088 -0.351237 -16.5968 23.2406 -4.29744 11.8353 -17.08 -7.64389 -4.44039 
-133.223 105.953 116.962 102.571 50.0613 76.2242 -177.011 39.0826 72.3472 -79.2863 1.29964 3.24062 59.083 0.847611 0.198044 49.2487 10.2473 12.6702 173.861 10.2158 90.3003 -27.8582 -9.42267 0.760869 58.078 15.4108 13.7075 22.5968 9.45686 -5.86074 1.25995 8.70911 -90.7259 9.46986 2.18547 -1.60384 -2.20037 2.11279 -1.69847 -24.7473 2.5664 -0.87262 -4.73469 2.56641 -0.87261 95.6325 -43.1678 -93.0878 36.0409 -63.3726 3.94839 -21.827 30.6116 -83.862 10.0137 -0.116492 -6.0478 -79.2407 -43.0745 94.738 -10.0475 -6.98391 24.8246 15.3009 0.58256 -84.04 1.57634 -0.505207 -16.4912 22.4529 -2.86782 14.1788 -17.7537 -6.81075 -5.53512 
-121.565 98.7414 104.652 106.093 51.2498 73.3922 175.575 34.0511 75.0892 -56.8181 4.55957 2.27932 58.4165 -0.218701 -1.27059 48.1156 9.8769 14.3488 172.103 6.51887 92.4202 -30.6459 -7.55789 1.88675 62.8827 7.55326 9.29516 27.5831 1.71747 -2.97532 1.13682 8.78507 -90.829 9.31543 1.89502 -1.78153 -2.35547 1.81479 -1.86321 -24.897 2.34277 -1.12956 -4.88435 2.34277 -1.12956 95.6312 -44.0665 -92.9583 35.9794 -57.7357 4.01802 -21.7474 27.7159 -82.5713 8.46704 -0.157301 -6.73569 -78.89 -43.0013 95.3147 -7.24926 -9.21115 23.4488 9.81896 -1.44584 -86.5371 6.25511 -0.927795 -15.4187 20.6267 -3.83474 13.2928 -15.9949 -7.40201 -4.75842 
-110.332 89.6014 92.6948 109.057 54.134 73.2675 170.866 33.6476 78.7986 -31.9446 7.56293 1.79872 53.3713 -6.35172 -4.21137 42.1277 6.38475 12.4432 170.836 -4.46077 99.5508 -32.2968 -6.76417 2.88615 68.2044 -20.8691 -12.1266 39.0829 -14.1653 -2.79865 0.879264 8.90167 -91.1786 9.07804 1.22713 -2.41648 -2.59467 1.11962 -2.46811 -25.1218 1.89652 -1.93621 -5.10919 1.89651 -1.93622 94.688 -45.421 -94.3046 27.9366 -51.3729 -3.18483 -20.0642 23.3906 -80.0521 6.1983 -0.0937633 -6.18663 -77.8698 -46.7464 97.0161 -9.51742 -11.04 19.2737 8.03552 -1.31147 -89.1043 9.4412 -1.2054 -15.1037 21.3026 -3.83255 13.2142 -13.7732 -7.7089 -3.09668 
-96.8825 87.7009 80.407 99.5931 52.0446 80.8478 171.085 34.7509 83.6256 -10.1467 4.54711 0.252951 45.1957 -16.2606 -7.59176 28.3425 -0.931955 11.0305 173.089 -15.382 99.4366 -27.2496 -6.45519 0.654143 69.16 -19.1535 -4.79886 42.8255 -20.0344 -4.80503 1.02546 8.32461 -90.7171 10.2351 1.71568 -1.57066 -1.4358 1.64489 -1.64464 -23.9765 2.10838 -0.982342 -3.96385 2.10836 -0.982341 94.4725 -45.7316 -94.6088 27.0584 -51.8993 -6.44179 -20.7514 21.7933 -75.12 7.86597 -0.14762 -6.7083 -78.6886 -49.9168 95.7938 -17.0937 -6.99627 17.7566 6.93336 -0.43304 -84.7329 6.01566 -0.913064 -15.5513 22.4762 -3.32686 9.80927 -14.1832 -6.29636 -2.08499 
-82.1856 86.8679 66.5141 92.8131 46.1134 83.0269 177.8 39.8322 80.9449 -32.7156 6.85277 -2.15893 52.995 -10.0198 -6.06689 27.3097 -1.01362 5.32844 171.06 -14.4707 89.9244 -40.7305 -12.8867 -1.53141 61.9138 2.81015 13.8566 36.0605 -10.586 -7.02637 1.24786 7.86412 -89.6526 11.1363 2.64564 0.448201 -0.531959 2.66282 0.331234 -23.0845 2.38852 1.22301 -3.07185 2.38852 1.223 95.4416 -44.6746 -93.1828 36.6221 -54.675 -1.30739 -20.3767 20.6435 -70.7749 5.58427 -0.0870963 -6.16742 -79.7105 -53.6538 94.3827 -17.2273 -4.71549 14.5421 10.9829 2.41269 -79.3036 1.23295 -0.502096 -17.2317 28.4745 -2.06838 9.61197 -17.7195 -5.3244 -3.29418 
-69.021 83.684 55.0409 99.5014 48.5327 74.6907 -178.316 35.5171 71.4911 -56.3142 12.7823 -1.20134 64.3648 8.33036 9.64455 36.3104 3.06338 -0.891762 169.525 0.734901 89.9832 -84.7954 -23.5965 -1.36298 57.4905 4.19459 1.5602 21.7344 9.73558 -1.75863 0.4875 8.62114 -88.9482 9.61296 1.44606 1.97727 -2.05857 1.53166 1.91173 -24.5838 0.785112 2.32027 -4.57116 0.785117 2.32027 95.6809 -44.4151 -92.8244 34.7406 -47.716 -2.08705 -20.6087 15.0489 -65.5731 2.40196 -0.0332333 -5.95819 -82.592 -55.5256 90.3377 -16.9262 -0.230824 -2.86515 11.4021 6.59731 -71.938 1.44076 -0.500461 -16.6861 36.7231 -1.8067 8.76728 -20.3649 -5.29396 -3.15611 
-56.6858 86.1771 45.0342 101.674 50.1378 75.8652 179.265 21.2244 75.4824 -55.8588 14.8236 1.4986 68.286 15.7718 12.9015 48.3286 8.16357 1.628 164.475 31.6627 92.2408 -121.762 -19.6646 -2.39253 58.4733 0.249178 -3.74062 23.7247 7.21995 -2.84895 -0.295563 8.76495 -89.0064 9.33446 -0.143089 1.97846 -2.33803 -0.0558991 1.98284 -24.862 -0.730939 1.84409 -4.84937 -0.730966 1.84407 96.8241 -44.496 -90.9132 30.6275 -31.1044 0.635035 -21.5919 7.72155 -67.3337 -3.72386 -0.048147 -4.72446 -83.7876 -50.8818 88.1637 -15.9547 9.45613 -20.657 8.67137 7.51301 -70.7344 2.10487 -0.581715 -16.8664 36.4115 -2.35252 2.12893 -20.3924 -3.3142 0.456341 
-43.7107 96.6243 34.3473 100.474 53.7201 85.9265 178.566 3.92742 87.7153 -40.1797 16.8753 6.82734 62.8165 1.40348 -1.05972 41.0117 5.25364 4.70202 144.87 50.2918 112.874 -124.138 -7.77064 -4.33376 61.7279 -4.21805 -6.12854 31.3684 -3.57544 -5.31739 -1.08699 8.46145 -90.0647 9.95276 -2.19559 0.0509755 -1.71633 -2.19123 0.14761 -24.2656 -2.10938 -0.611556 -4.25293 -2.10938 -0.611555 97.8769 -42.404 -89.3679 25.0872 -17.3527 7.13065 -20.6019 3.62894 -70.5817 -8.94676 -0.114995 -3.88828 -82.9875 -49.3904 89.2223 -12.9696 19.8905 -24.088 9.38697 3.36596 -79.3232 -0.264817 -0.333671 -17.5298 33.7252 -0.37769 0.00787958 -21.1677 -0.7778 2.39684 
